<?xml version="1.0" encoding="UTF-8" standalone="no"?><!DOCTYPE svg PUBLIC "-//W3C//DTD SVG 1.1//EN" "http://www.w3.org/Graphics/SVG/1.1/DTD/svg11.dtd"><svg width="100%" height="100%" viewBox="0 0 100 100" version="1.1" xmlns="http://www.w3.org/2000/svg" xmlns:xlink="http://www.w3.org/1999/xlink" xml:space="preserve" xmlns:serif="http://www.serif.com/" style="fill-rule:evenodd;clip-rule:evenodd;stroke-linecap:round;stroke-linejoin:round;stroke-miterlimit:1.5;"><g><path d="M43.742,10.811c0,0 27.443,32.007 33.124,38.632c0.588,0.686 0.589,1.698 0.003,2.386c-5.667,6.642 -33.055,38.744 -33.055,38.744" style="fill:none;stroke:#4f3416;stroke-width:12px;"/><path d="M21.324,4.818l0.426,0.048l0.421,0.078l0.415,0.108l0.405,0.137l0.395,0.165l0.383,0.194l0.367,0.22l0.351,0.245l0.332,0.271l0.312,0.293l0.291,0.315l33.359,38.836l0.087,0.104l0.106,0.132l0.103,0.135l0.12,0.164l0.17,0.25l0.176,0.286l0.162,0.293l0.148,0.298l0.134,0.303l0.12,0.307l0.105,0.311l0.092,0.313l0.077,0.317l0.064,0.318l0.049,0.321l0.035,0.321l0.022,0.322l0.007,0.322l-0.007,0.323l-0.02,0.322l-0.035,0.322l-0.048,0.32l-0.063,0.318l-0.076,0.317l-0.091,0.314l-0.105,0.311l-0.119,0.308l-0.134,0.303l-0.147,0.298l-0.161,0.293l-0.175,0.287l-0.17,0.251l-0.119,0.164l-0.103,0.135l-0.105,0.132l-0.087,0.105l-33.289,38.948l-0.29,0.316l-0.311,0.294l-0.332,0.271l-0.35,0.246l-0.367,0.221l-0.382,0.195l-0.394,0.166l-0.406,0.138l-0.414,0.109l-0.421,0.079l-0.426,0.049l-0.427,0.018l-0.429,-0.013l-0.426,-0.042l-0.422,-0.074l-0.415,-0.103l-0.408,-0.132l-0.397,-0.161l-0.384,-0.19l-0.37,-0.216l-0.353,-0.241l-0.335,-0.267l-0.316,-0.29l-0.294,-0.311l-0.271,-0.332l-0.247,-0.35l-0.221,-0.367l-0.194,-0.382l-0.167,-0.394l-0.138,-0.406l-0.108,-0.414l-0.079,-0.421l-0.049,-0.425l-0.018,-0.428l0.012,-0.428l0.043,-0.427l0.073,-0.422l0.104,-0.415l0.132,-0.408l0.161,-0.396l0.189,-0.385l0.216,-0.37l0.242,-0.353l0.267,-0.335l30.732,-35.958l-30.795,-35.851l-0.267,-0.335l-0.243,-0.353l-0.217,-0.369l-0.19,-0.384l-0.162,-0.396l-0.134,-0.407l-0.104,-0.416l-0.074,-0.422l-0.044,-0.426l-0.014,-0.428l0.018,-0.428l0.047,-0.425l0.078,-0.422l0.108,-0.414l0.137,-0.406l0.165,-0.395l0.194,-0.382l0.22,-0.368l0.246,-0.35l0.27,-0.333l0.293,-0.312l0.315,-0.29l0.334,-0.268l0.353,-0.242l0.37,-0.217l0.383,-0.19l0.397,-0.163l0.407,-0.133l0.415,-0.104l0.422,-0.074l0.426,-0.044l0.428,-0.014l0.428,0.017Z" style="fill:#6f962e;"/></g></svg>