<?xml version="1.0" encoding="UTF-8" standalone="no"?><!DOCTYPE svg PUBLIC "-//W3C//DTD SVG 1.1//EN" "http://www.w3.org/Graphics/SVG/1.1/DTD/svg11.dtd"><svg width="100%" height="100%" viewBox="0 0 100 100" version="1.1" xmlns="http://www.w3.org/2000/svg" xmlns:xlink="http://www.w3.org/1999/xlink" xml:space="preserve" xmlns:serif="http://www.serif.com/" style="fill-rule:evenodd;clip-rule:evenodd;stroke-linecap:round;stroke-linejoin:round;stroke-miterlimit:1.5;"><g><path d="M55.039,90.572c0,0 -27.476,-31.978 -33.164,-38.597c-0.589,-0.685 -0.591,-1.697 -0.005,-2.385c5.659,-6.648 33.013,-38.779 33.013,-38.779" style="fill:none;stroke:#4f3416;stroke-width:12px;"/><path d="M78.136,4.954l0.426,0.042l0.422,0.073l0.416,0.102l0.408,0.132l0.397,0.161l0.384,0.189l0.37,0.216l0.354,0.241l0.335,0.266l0.316,0.29l0.295,0.311l0.271,0.331l0.247,0.35l0.221,0.367l0.195,0.381l0.167,0.395l0.138,0.405l0.11,0.414l0.079,0.421l0.049,0.426l0.019,0.427l-0.012,0.429l-0.043,0.426l-0.072,0.422l-0.103,0.416l-0.132,0.407l-0.161,0.397l-0.189,0.385l-0.215,0.37l-0.242,0.353l-0.266,0.336l-30.694,35.99l30.832,35.819l0.268,0.334l0.243,0.353l0.218,0.369l0.19,0.384l0.163,0.396l0.134,0.407l0.104,0.415l0.075,0.422l0.044,0.426l0.014,0.428l-0.017,0.428l-0.047,0.426l-0.077,0.421l-0.107,0.414l-0.137,0.406l-0.165,0.396l-0.193,0.382l-0.22,0.368l-0.245,0.351l-0.27,0.332l-0.293,0.313l-0.314,0.291l-0.335,0.267l-0.352,0.243l-0.37,0.218l-0.383,0.19l-0.396,0.163l-0.407,0.134l-0.416,0.104l-0.421,0.075l-0.426,0.044l-0.428,0.014l-0.428,-0.016l-0.426,-0.048l-0.421,-0.077l-0.415,-0.107l-0.406,-0.137l-0.395,-0.165l-0.383,-0.193l-0.367,-0.22l-0.351,-0.245l-0.333,-0.27l-0.312,-0.293l-0.291,-0.314l-33.4,-38.801l-0.087,-0.104l-0.107,-0.133l-0.103,-0.134l-0.12,-0.164l-0.17,-0.251l-0.176,-0.285l-0.162,-0.293l-0.149,-0.298l-0.134,-0.302l-0.12,-0.307l-0.106,-0.311l-0.092,-0.314l-0.078,-0.316l-0.064,-0.318l-0.049,-0.32l-0.036,-0.322l-0.022,-0.322l-0.007,-0.322l0.006,-0.323l0.02,-0.322l0.034,-0.322l0.049,-0.32l0.062,-0.319l0.076,-0.317l0.091,-0.314l0.104,-0.311l0.119,-0.307l0.133,-0.303l0.147,-0.299l0.161,-0.293l0.175,-0.287l0.169,-0.251l0.119,-0.164l0.102,-0.135l0.106,-0.133l0.087,-0.105l33.248,-38.983l0.289,-0.316l0.311,-0.294l0.332,-0.271l0.35,-0.247l0.366,-0.222l0.382,-0.195l0.394,-0.167l0.405,-0.138l0.415,-0.109l0.421,-0.08l0.425,-0.049l0.428,-0.018l0.428,0.012Z" style="fill:#6f962e;"/></g></svg>